<mxfile host="app.diagrams.net" modified="2022-01-08T07:47:20.906Z" agent="5.0 (Windows NT 10.0; WOW64) AppleWebKit/537.36 (KHTML, like Gecko) Chrome/95.0.4638.84 Safari/537.36" etag="ywixXXQpbl4l83u_kKIY" version="16.2.4" type="github">
  <diagram id="RjNiyJ7KMD1M3_tUFvwx" name="Page-1">
    <mxGraphModel dx="1058" dy="1749" grid="1" gridSize="10" guides="1" tooltips="1" connect="1" arrows="1" fold="1" page="1" pageScale="1" pageWidth="827" pageHeight="1169" math="0" shadow="0">
      <root>
        <mxCell id="0" />
        <mxCell id="1" parent="0" />
        <mxCell id="0Jrl0n4_cKku2UOa913D-13" style="edgeStyle=orthogonalEdgeStyle;rounded=0;orthogonalLoop=1;jettySize=auto;html=1;exitX=1;exitY=0.75;exitDx=0;exitDy=0;startArrow=none;" edge="1" parent="1" source="0Jrl0n4_cKku2UOa913D-15" target="0Jrl0n4_cKku2UOa913D-9">
          <mxGeometry relative="1" as="geometry" />
        </mxCell>
        <mxCell id="0Jrl0n4_cKku2UOa913D-1" value="website (tk/mk)" style="whiteSpace=wrap;html=1;aspect=fixed;" vertex="1" parent="1">
          <mxGeometry x="170" y="130" width="120" height="120" as="geometry" />
        </mxCell>
        <mxCell id="0Jrl0n4_cKku2UOa913D-2" value="Api" style="whiteSpace=wrap;html=1;aspect=fixed;" vertex="1" parent="1">
          <mxGeometry x="650" y="150" width="150" height="150" as="geometry" />
        </mxCell>
        <mxCell id="0Jrl0n4_cKku2UOa913D-4" value="id&lt;br&gt;name&lt;br&gt;sở thích id&lt;br&gt;ảnh avt&lt;br&gt;ảnhid" style="text;html=1;strokeColor=#d79b00;fillColor=#ffe6cc;align=center;verticalAlign=middle;whiteSpace=wrap;rounded=0;" vertex="1" parent="1">
          <mxGeometry x="370" y="40" width="110" height="100" as="geometry" />
        </mxCell>
        <mxCell id="0Jrl0n4_cKku2UOa913D-7" value="" style="endArrow=classic;startArrow=classic;html=1;rounded=0;exitX=1;exitY=0.25;exitDx=0;exitDy=0;" edge="1" parent="1" source="0Jrl0n4_cKku2UOa913D-1" target="0Jrl0n4_cKku2UOa913D-4">
          <mxGeometry width="50" height="50" relative="1" as="geometry">
            <mxPoint x="390" y="280" as="sourcePoint" />
            <mxPoint x="440" y="230" as="targetPoint" />
          </mxGeometry>
        </mxCell>
        <mxCell id="0Jrl0n4_cKku2UOa913D-8" value="" style="endArrow=classic;startArrow=classic;html=1;rounded=0;entryX=1;entryY=0.75;entryDx=0;entryDy=0;" edge="1" parent="1" source="0Jrl0n4_cKku2UOa913D-2" target="0Jrl0n4_cKku2UOa913D-4">
          <mxGeometry width="50" height="50" relative="1" as="geometry">
            <mxPoint x="210" y="280" as="sourcePoint" />
            <mxPoint x="369" y="190.84112149532712" as="targetPoint" />
          </mxGeometry>
        </mxCell>
        <mxCell id="0Jrl0n4_cKku2UOa913D-9" value="id&lt;br&gt;startTus&lt;br&gt;idUser&lt;br&gt;số tương tác" style="whiteSpace=wrap;html=1;aspect=fixed;" vertex="1" parent="1">
          <mxGeometry x="460" y="220" width="160" height="160" as="geometry" />
        </mxCell>
        <mxCell id="0Jrl0n4_cKku2UOa913D-11" value="" style="endArrow=classic;html=1;rounded=0;exitX=1;exitY=0.5;exitDx=0;exitDy=0;entryX=0;entryY=0.5;entryDx=0;entryDy=0;" edge="1" parent="1" source="0Jrl0n4_cKku2UOa913D-9" target="0Jrl0n4_cKku2UOa913D-2">
          <mxGeometry width="50" height="50" relative="1" as="geometry">
            <mxPoint x="390" y="250" as="sourcePoint" />
            <mxPoint x="440" y="200" as="targetPoint" />
          </mxGeometry>
        </mxCell>
        <mxCell id="0Jrl0n4_cKku2UOa913D-16" value="id&lt;br&gt;UserId&lt;br&gt;threadid&lt;br&gt;bodyMessger&lt;br&gt;messgerId" style="whiteSpace=wrap;html=1;aspect=fixed;" vertex="1" parent="1">
          <mxGeometry x="10" y="260" width="140" height="140" as="geometry" />
        </mxCell>
        <mxCell id="0Jrl0n4_cKku2UOa913D-15" value="Người dùng" style="text;html=1;strokeColor=none;fillColor=none;align=center;verticalAlign=middle;whiteSpace=wrap;rounded=0;" vertex="1" parent="1">
          <mxGeometry x="250" y="160" width="60" height="30" as="geometry" />
        </mxCell>
        <mxCell id="0Jrl0n4_cKku2UOa913D-17" value="" style="edgeStyle=orthogonalEdgeStyle;rounded=0;orthogonalLoop=1;jettySize=auto;html=1;exitX=1;exitY=0.75;exitDx=0;exitDy=0;endArrow=none;" edge="1" parent="1" source="0Jrl0n4_cKku2UOa913D-1" target="0Jrl0n4_cKku2UOa913D-15">
          <mxGeometry relative="1" as="geometry">
            <mxPoint x="220" y="172.5" as="sourcePoint" />
            <mxPoint x="359" y="260" as="targetPoint" />
          </mxGeometry>
        </mxCell>
        <mxCell id="0Jrl0n4_cKku2UOa913D-18" value="id&lt;br&gt;messgerId&lt;br&gt;nội dung&lt;br&gt;senderid&lt;br&gt;img" style="whiteSpace=wrap;html=1;aspect=fixed;" vertex="1" parent="1">
          <mxGeometry x="215" y="300" width="130" height="130" as="geometry" />
        </mxCell>
        <mxCell id="0Jrl0n4_cKku2UOa913D-19" value="" style="endArrow=classic;html=1;rounded=0;" edge="1" parent="1" source="0Jrl0n4_cKku2UOa913D-16" target="0Jrl0n4_cKku2UOa913D-18">
          <mxGeometry width="50" height="50" relative="1" as="geometry">
            <mxPoint x="390" y="230" as="sourcePoint" />
            <mxPoint x="440" y="180" as="targetPoint" />
          </mxGeometry>
        </mxCell>
        <mxCell id="0Jrl0n4_cKku2UOa913D-20" value="id&lt;br&gt;ảnh&lt;br&gt;UserID" style="whiteSpace=wrap;html=1;aspect=fixed;" vertex="1" parent="1">
          <mxGeometry x="500" width="80" height="80" as="geometry" />
        </mxCell>
        <mxCell id="0Jrl0n4_cKku2UOa913D-21" value="" style="endArrow=classic;html=1;rounded=0;entryX=0;entryY=0.5;entryDx=0;entryDy=0;exitX=1;exitY=0.25;exitDx=0;exitDy=0;" edge="1" parent="1" source="0Jrl0n4_cKku2UOa913D-4" target="0Jrl0n4_cKku2UOa913D-20">
          <mxGeometry width="50" height="50" relative="1" as="geometry">
            <mxPoint x="460" y="90" as="sourcePoint" />
            <mxPoint x="440" y="120" as="targetPoint" />
          </mxGeometry>
        </mxCell>
        <mxCell id="0Jrl0n4_cKku2UOa913D-24" value="id&amp;nbsp;&lt;br&gt;User&lt;br&gt;Sở thích" style="whiteSpace=wrap;html=1;aspect=fixed;" vertex="1" parent="1">
          <mxGeometry x="670" y="50" width="80" height="80" as="geometry" />
        </mxCell>
        <mxCell id="0Jrl0n4_cKku2UOa913D-25" value="" style="endArrow=classic;html=1;rounded=0;entryX=0;entryY=0.5;entryDx=0;entryDy=0;exitX=1;exitY=0.5;exitDx=0;exitDy=0;" edge="1" parent="1" source="0Jrl0n4_cKku2UOa913D-4" target="0Jrl0n4_cKku2UOa913D-24">
          <mxGeometry width="50" height="50" relative="1" as="geometry">
            <mxPoint x="390" y="150" as="sourcePoint" />
            <mxPoint x="440" y="100" as="targetPoint" />
          </mxGeometry>
        </mxCell>
        <mxCell id="0Jrl0n4_cKku2UOa913D-27" value="Id&lt;br&gt;Userid&lt;br&gt;UseridConnect" style="whiteSpace=wrap;html=1;aspect=fixed;" vertex="1" parent="1">
          <mxGeometry x="200" y="-70" width="100" height="100" as="geometry" />
        </mxCell>
        <mxCell id="0Jrl0n4_cKku2UOa913D-28" value="" style="endArrow=classic;html=1;rounded=0;entryX=0.436;entryY=-0.03;entryDx=0;entryDy=0;entryPerimeter=0;" edge="1" parent="1" source="0Jrl0n4_cKku2UOa913D-27" target="0Jrl0n4_cKku2UOa913D-4">
          <mxGeometry width="50" height="50" relative="1" as="geometry">
            <mxPoint x="390" y="30" as="sourcePoint" />
            <mxPoint x="440" y="-20" as="targetPoint" />
          </mxGeometry>
        </mxCell>
        <mxCell id="0Jrl0n4_cKku2UOa913D-32" value="" style="endArrow=classic;html=1;rounded=0;" edge="1" parent="1" source="0Jrl0n4_cKku2UOa913D-27" target="0Jrl0n4_cKku2UOa913D-16">
          <mxGeometry width="50" height="50" relative="1" as="geometry">
            <mxPoint x="350" y="30" as="sourcePoint" />
            <mxPoint x="400" y="-20" as="targetPoint" />
          </mxGeometry>
        </mxCell>
      </root>
    </mxGraphModel>
  </diagram>
</mxfile>
